<svg xmlns="http://www.w3.org/2000/svg" viewBox="0 0 244.01 64.62"><title>aboutwork</title><g id="圖層_2" data-name="圖層 2"><g id="圖層_1-2" data-name="圖層 1"><g id="_群組_" data-name="&lt;群組&gt;"><path id="_複合路徑_" data-name="&lt;複合路徑&gt;" d="M0,61.18c1.32-5.82,4.92-9.88,10-12.81a9.11,9.11,0,0,1,2.29-.84,4.29,4.29,0,0,1,3.85.76c.17-.18.3-.46.47-.49a1.91,1.91,0,0,1,1.14,0c.17.09.25.68.14.94-.41.93-.94,1.8-1.38,2.71a23.84,23.84,0,0,0-2.3,7c-.11.8-.28,1.71.48,2.28s1.66.18,2.36-.28c1.49-1,3-2,4.35-3.07s2.68-2.25,4-3.42a1.89,1.89,0,0,0,.59-1.05,67.3,67.3,0,0,1,5.84-21.1,68.06,68.06,0,0,1,3.58-6.61,10.38,10.38,0,0,1,1.8-2.12,3.18,3.18,0,0,1,3.41-.9c1.28.45,1.67,1.63,1.9,2.81a9.71,9.71,0,0,1-.53,4.83,49.1,49.1,0,0,1-5.61,11.54c-2.65,4.09-5.52,8-8.26,12.08a2.85,2.85,0,0,0-.5,1.6A16.28,16.28,0,0,0,28,58.8c.81,2.77,3.63,3.35,5.48,1.13a32.51,32.51,0,0,0,2.22-3.47.92.92,0,0,0-.15-1.2,9.71,9.71,0,0,1-2-7.23,2.61,2.61,0,0,1,2.79-2.57,2.14,2.14,0,0,1,2,1.61,13.4,13.4,0,0,1,0,6.54c0,.16-.07.33-.11.49-.33,1.33-.3,1.41,1,1.85a5,5,0,0,0,4.25-.34,35,35,0,0,0,4.25-2.9c1-.8,1.76-1.88,2.71-2.76s2.23-1.88,3.33-2.85a4.85,4.85,0,0,0,.75-.93,11.86,11.86,0,0,1,1.22-1.9,2.15,2.15,0,0,1,3.65.76,27,27,0,0,1,.81,3.12c1.37-.4,2.82-.72,4.19-1.25,3-1.14,5.9-2.39,8.84-3.62.51-.21,1-.49,1.44.07s.09,1-.24,1.43a18.86,18.86,0,0,0-3.89,9.51,3.85,3.85,0,0,0,0,.59c.11,1.24.62,1.62,1.73,1.08a15.59,15.59,0,0,0,2.92-1.84,53.76,53.76,0,0,0,8.1-8.28l1.67-2c.33-.41.69-.7,1.21-.31s.4.78.14,1.26c-1.06,2-2.16,4-3.14,6.08a11.57,11.57,0,0,0-.87,2.9c-.19,1,.23,1.47,1.28,1.51a5,5,0,0,0,3.21-1.15c2.31-1.75,4.62-3.51,6.85-5.37,1.56-1.3,3-2.75,4.45-4.16a1.48,1.48,0,0,0,.48-.92c0-4.74,1.26-9.26,2.43-13.79.06-.24.12-.48.18-.76-.91.08-1.77.14-2.63.23-.7.08-1.4.19-2.1.3-.53.08-1,0-1.07-.63s.24-.93.85-1c1.6-.2,3.19-.45,4.79-.61a1,1,0,0,0,1-.82,53.67,53.67,0,0,1,2.06-5.18,22.91,22.91,0,0,1,2.36-3.59A4.84,4.84,0,0,1,108,16.56c2.48-1.3,4.65,0,4.6,2.77a25.66,25.66,0,0,1-.68,4.49,24.38,24.38,0,0,1-.7,2.41l.9-.08,7-.71c.58-.06,1.11-.06,1.16.72s-.47.87-1,.93c-2.53.25-5.06.53-7.59.74a1.47,1.47,0,0,0-1.45,1.1,52.41,52.41,0,0,1-9.4,15.18,2.14,2.14,0,0,0-.55,1.41,43,43,0,0,0,.79,6.1c.6,2.51,2.3,3.41,4.76,2.6a16,16,0,0,0,4.3-2.09c2.73-2,5.31-4.2,7.94-6.32.2-.16.38-.35.59-.49a.84.84,0,0,1,1.2.18c.37.44.17.78-.18,1.09-2,1.72-4,3.49-6.08,5.14a28.1,28.1,0,0,1-4.39,3,14.21,14.21,0,0,1-4.31,1.34,4.36,4.36,0,0,1-5.08-3,28.59,28.59,0,0,1-1.06-4.43,18.92,18.92,0,0,1-.19-2c-1.2,1.15-2.22,2.26-3.39,3.21q-3.57,2.9-7.26,5.65A7.24,7.24,0,0,1,83.44,57a2.52,2.52,0,0,1-2.77-2.64,13.45,13.45,0,0,1,.4-2.49c.05-.26.14-.52.27-1-1.34,1.31-2.46,2.54-3.73,3.6a22.63,22.63,0,0,1-4.07,2.83c-2.81,1.44-4.68.19-4.59-3,.08-2.71,1.2-5.14,2.33-7.55l.45-.9c-.35.13-.57.19-.78.28A55.22,55.22,0,0,1,60.66,49.7c-.56.12-.6.47-.66.9a14.2,14.2,0,0,1-3.23,7.51,6.94,6.94,0,0,1-5.47,2.78,2.62,2.62,0,0,1-2.63-1.5,17.68,17.68,0,0,1-.86-3.13,5.29,5.29,0,0,1,0-1.19c-3.24,2.21-6.45,4-10.39,1.89a20,20,0,0,1-1.37,2.39A12.35,12.35,0,0,1,33.62,62a4.43,4.43,0,0,1-7-2.32,33.55,33.55,0,0,1-.83-3.52c-.64.46-1.33,1-2,1.46-1.85,1.37-3.67,2.8-5.57,4.1a6.11,6.11,0,0,1-2.36.87A2.65,2.65,0,0,1,12.54,60,23.7,23.7,0,0,1,13,55.86a10.11,10.11,0,0,1,.31-1.18c-1,1.25-1.78,2.32-2.64,3.35C9.32,59.61,8,61.24,6.58,62.69a7.61,7.61,0,0,1-2.82,1.73C2.12,65,1,64.34.3,62.74c-.06-.13-.13-.25-.2-.37ZM27.71,50.79l.27.09c.17-.22.35-.42.51-.65,1.71-2.49,3.48-4.94,5.1-7.48A62,62,0,0,0,40.07,30a18.83,18.83,0,0,0,.8-4c.1-.9,0-2-1-2.31s-1.54.48-2.12,1.09a10,10,0,0,0-1.1,1.4c-.63,1-1.25,1.94-1.8,3A69,69,0,0,0,29,44.62C28.5,46.65,28.14,48.73,27.71,50.79Zm-26,10.59c.14,1.41.66,1.79,1.54,1.46A4.54,4.54,0,0,0,4.79,62,28.57,28.57,0,0,0,8,58.83c2.22-2.77,4.33-5.63,6.49-8.45.58-.76.41-1.3-.58-1.27a7,7,0,0,0-2.75.59c-4,1.9-6.7,5.16-8.67,9A11.68,11.68,0,0,0,1.71,61.38ZM54.76,48.49A12,12,0,0,0,51,52.16a14.28,14.28,0,0,0-1.41,3.57A2.76,2.76,0,0,0,50.61,59c1.19.72,2.35.09,3.36-.62a11,11,0,0,0,4.21-6.72c.13-.51.16-1,.25-1.62A3.79,3.79,0,0,1,54.76,48.49Zm45.43-6.86.34.1a53.65,53.65,0,0,0,8.21-13.48c-1.08.09-2,.16-3,.26-2.77.3-2.77.3-3.44,3-.1.38-.22.76-.29,1.14Q101.1,37.13,100.19,41.63Zm3.47-14.7c1.85-.15,3.62-.29,5.38-.48.19,0,.45-.32.51-.53.46-1.57.92-3.14,1.27-4.73a8,8,0,0,0,.13-2.35c-.07-.92-.64-1.29-1.46-.9a6.65,6.65,0,0,0-2.11,1.46C105.45,21.54,104.55,24.22,103.66,26.93Zm-67,26.87A13.23,13.23,0,0,0,36.93,48c-.08-.35-.45-.64-.69-1-.32.31-.65.61-1,.94a.76.76,0,0,0-.1.41A7.93,7.93,0,0,0,36.64,53.8Zm21.85-5.42c-.16-.92-.27-1.75-.47-2.55-.06-.23-.58-.55-.6-.53-.45.42-1.06.83-1.23,1.37-.29.89.05,1.3.91,1.51C57.5,48.28,57.92,48.3,58.49,48.38Z"/><path id="_複合路徑_2" data-name="&lt;複合路徑&gt;" d="M242.81,37.14c-2.37,2.2-4.54,4.64-7.39,6.3a11.4,11.4,0,0,1-6.6,1.77,9.62,9.62,0,0,1-6.31-3.44c-.9-1-1.64-2.08-2.51-3.2A13.31,13.31,0,0,0,218,42.44c-.45,1.4-.85,2.81-1.28,4.21a6.83,6.83,0,0,1-.23.73.86.86,0,0,1-1.14.59.79.79,0,0,1-.49-1.1c.48-1.68,1-3.35,1.49-5s1.1-3.47,1.53-5.26c-1.28,1.27-2.48,2.62-3.84,3.79-1.71,1.47-3.5,2.85-5.33,4.16a7.18,7.18,0,0,1-4.13,1.33,2.22,2.22,0,0,1-2.47-2.12,11.09,11.09,0,0,1,.69-4.57c.31-1.08.69-2.15,1-3.24s.17-1.3-1-1.59L201.11,34a29.05,29.05,0,0,1-5.34,6.87c-3.51,3.53-7.71,5-12.65,3.78a.69.69,0,0,0-.88.34,36.92,36.92,0,0,1-2.51,3.18A6,6,0,0,1,175.85,50a3.2,3.2,0,0,1-3.75-2.91,25.1,25.1,0,0,1,0-2.74c-4.55,2.33-6.55,2.28-8-.3-.6.82-1.17,1.61-1.76,2.39a17.09,17.09,0,0,1-4.44,4.25,8.1,8.1,0,0,1-2,.94,2.59,2.59,0,0,1-3.56-1.88,17.8,17.8,0,0,1-.37-2.92,8.06,8.06,0,0,1,0-1c-1,1-1.83,1.9-2.77,2.69a44.45,44.45,0,0,1-3.63,2.76,4.64,4.64,0,0,1-1.73.61,1.73,1.73,0,0,1-1.89-1,6.32,6.32,0,0,1-.41-4.69c.29-1.37.72-2.7,1.13-4.18-.9.86-1.71,1.66-2.56,2.43s-1.92,1.66-2.88,2.49c-.42.36-.91.59-1.33.09s-.19-.94.26-1.37c2.67-2.52,5.31-5.07,7.95-7.61.22-.22.4-.53.67-.64s.92-.33,1.09-.17a1.28,1.28,0,0,1,.26,1.15c-.59,1.61-1.36,3.16-1.91,4.78A35.73,35.73,0,0,0,143,47.9c-.15.77-.29,1.8.5,2.26s1.43-.28,2-.72a44,44,0,0,0,7-6.85,7.33,7.33,0,0,0,.52-1.05,10.47,10.47,0,0,1,1.35-2,1.52,1.52,0,0,1,1.37-.14c.22.1.36.88.22,1.22a14.39,14.39,0,0,1-1.21,2,8.31,8.31,0,0,0-.82,6.89,1.17,1.17,0,0,0,1,.58,6.7,6.7,0,0,0,2.31-.94,22.72,22.72,0,0,0,6.14-7.35,3.49,3.49,0,0,0,.21-.8,20.74,20.74,0,0,1,.86-2.63,1,1,0,0,1,1.81.43,9.41,9.41,0,0,1-.74,2.56,2,2,0,0,0,1.77,3,6.38,6.38,0,0,0,2.27-.57,11.4,11.4,0,0,0,4.41-3.48,19.66,19.66,0,0,1,4.24-3.86,2.86,2.86,0,0,0,.71-1c.2-.37.3-.79.48-1.17A2,2,0,0,1,181.25,33a2,2,0,0,1,1.92,1.3,10.19,10.19,0,0,1,.73,3.27c0,1.76-.25,3.51-.42,5.49a14.36,14.36,0,0,0,2.21.34,11.24,11.24,0,0,0,8-3,28.94,28.94,0,0,0,5.3-6.23c.45-.75.62-1.67,1-2.47a1.14,1.14,0,0,1,.81-.61c.27,0,.77.42.76.63,0,.67.36.73.81.84s1,.23,1.47.39a2,2,0,0,1,1.59,2.43c-.3,1.71-.82,3.39-1.23,5.08a18.7,18.7,0,0,0-.53,2.64c-.07,1,.31,1.32,1.23,1.09a7.67,7.67,0,0,0,2.71-1.08c2.3-1.71,4.57-3.49,6.71-5.4,1.65-1.48,3.1-3.2,4.61-4.84a2.49,2.49,0,0,0,.46-1c2.09-6.7,4.14-13.41,6.26-20.1a29,29,0,0,1,3.89-8.32A11.44,11.44,0,0,1,231.89,1a3.92,3.92,0,0,1,4.37-.55,4.23,4.23,0,0,1,2.12,3.9A14.3,14.3,0,0,1,237,10.41a46.21,46.21,0,0,1-6.13,10.21c-3,3.94-6.12,7.82-9.26,11.67a7.32,7.32,0,0,0-1.56,3.21c.6-.6,1.09-1.11,1.6-1.6A18.93,18.93,0,0,1,229.31,29a5.35,5.35,0,0,1,1.33-.2,2.46,2.46,0,0,1,2.61,3,5.28,5.28,0,0,1-.83,2,11.19,11.19,0,0,1-8.91,5l-.93,0c-.05,0-.09,0-.13.08,2.27,4.2,6.55,5.72,10.75,3.63a28.52,28.52,0,0,0,4.88-3.31c1.6-1.29,3-2.65,4.51-4.05.58-.5,1-.45,1.28-.17C244.35,35.58,243.53,36.41,242.81,37.14Zm-20.84-8,.37-.31a120.27,120.27,0,0,0,11-14.81,20.94,20.94,0,0,0,3.17-7.6,10.12,10.12,0,0,0,0-3.25c-.23-1.21-1.17-1.64-2.39-1.39a3.73,3.73,0,0,0-2.42,1.73,26.28,26.28,0,0,0-2.62,4.52c-1.52,3.88-2.87,7.83-4.2,11.78C223.84,22.84,223,25.9,222,29.16Zm-43.38,9.19a11.49,11.49,0,0,0-3.85,3.87,7.05,7.05,0,0,0-1,4.62,1.56,1.56,0,0,0,1.92,1.51c2.23-.19,4.67-2.35,5.4-4.79A8,8,0,0,1,178.59,38.35Zm42.57-1.51a12.31,12.31,0,0,0,1.62.31A9.36,9.36,0,0,0,231,33c.44-.6,1-1.39.47-2.08s-1.42-.36-2.13-.11C226.07,31.91,223.66,34.23,221.16,36.84Zm-39.38,5.08a10.79,10.79,0,0,0,.11-6.55c-.07-.24-.39-.42-.59-.62-.19.22-.47.41-.55.67-.16.5-.18,1-.3,1.55A5.48,5.48,0,0,0,181.78,41.92Z"/></g></g></g></svg>