<svg xmlns="http://www.w3.org/2000/svg" viewBox="0 0 205.45 64.58"><title>aboutlist</title><g id="圖層_2" data-name="圖層 2"><g id="圖層_1-2" data-name="圖層 1"><g id="_群組_" data-name="&lt;群組&gt;"><path id="_複合路徑_" data-name="&lt;複合路徑&gt;" d="M0,50.06C1.12,44.72,4.4,41,8.87,38.15a6.08,6.08,0,0,1,4.38-1.1,14.65,14.65,0,0,1,1.92.66l.2-.22a.78.78,0,0,1,1.2-.18c.44.3.31.66.13,1.08-1,2.22-2,4.42-2.85,6.69a10.24,10.24,0,0,0-.54,3.17c-.05,1.34.74,1.84,2,1.36a6.68,6.68,0,0,0,1.7-.93c2.34-1.89,4.64-3.82,6.94-5.76a1.12,1.12,0,0,0,.3-.67A65,65,0,0,1,31.6,18.12a25.66,25.66,0,0,1,2-3,7.17,7.17,0,0,1,1.28-1.36c2-1.61,4.14-.87,4.74,1.59a8.09,8.09,0,0,1-.15,4,39.21,39.21,0,0,1-3.79,9,101.37,101.37,0,0,1-9.38,14.29A1.83,1.83,0,0,0,25.77,44a19.85,19.85,0,0,0,.65,4,2.77,2.77,0,0,0,4.81,1,10,10,0,0,0,2.41-3.9,1,1,0,0,0-.23-.73,9.48,9.48,0,0,1-2-6.33,5,5,0,0,1,.33-1.53A2.23,2.23,0,0,1,34.05,35a2.1,2.1,0,0,1,2,1.76,13.26,13.26,0,0,1-.07,6c0,.12-.06.24-.08.35-.31,1.29-.27,1.37,1,1.78a5,5,0,0,0,3.86-.32,17.47,17.47,0,0,0,6-4.84,15.27,15.27,0,0,1,3.61-3.29,2.78,2.78,0,0,0,.72-.9,12.17,12.17,0,0,1,1-1.71,2.06,2.06,0,0,1,3.54.6,7.23,7.23,0,0,1,.42,1.37c.1.47.15,1,.25,1.58a32.55,32.55,0,0,0,3.34-1c3-1.2,6.05-2.48,9.06-3.75.49-.2,1-.42,1.35.11s.06.89-.23,1.29a18.11,18.11,0,0,0-3.6,8.7c-.08.69-.21,1.52.44,2s1.4,0,1.92-.43a48.24,48.24,0,0,0,5.08-4.25c2.1-2.15,4-4.52,5.94-6.79a1.72,1.72,0,0,1,.72-.55.74.74,0,0,1,.78,1.07c-.22.48-.55.9-.78,1.38C79.5,37.1,78.59,39,77.71,41a5.67,5.67,0,0,0-.36,1.54c-.12,1,.3,1.54,1.3,1.39A6,6,0,0,0,81.26,43c2.4-1.76,4.74-3.62,7-5.54,1.37-1.15,2.61-2.48,3.88-3.76a1.2,1.2,0,0,0,.39-.79,49.24,49.24,0,0,1,1.79-11.45c.18-.76.39-1.52.62-2.4l-3.57.5-.93.15c-.51.08-.93,0-1-.61s.24-.88.82-.95c1.43-.17,2.86-.41,4.3-.55a1.16,1.16,0,0,0,1.15-.91,44,44,0,0,1,1.91-4.9A18.32,18.32,0,0,1,99.79,8.5a4.74,4.74,0,0,1,1.7-1.29c2.22-1,4.09.07,4.12,2.54a21.67,21.67,0,0,1-.5,4,26.29,26.29,0,0,1-.76,2.67l.82-.08,6.46-.73c.56-.06,1.16-.15,1.27.65.09.59-.24.82-1.16.92-2.47.27-4.93.56-7.4.82a.79.79,0,0,0-.77.59,49.79,49.79,0,0,1-9.12,15,1.25,1.25,0,0,0-.32.83,46.36,46.36,0,0,0,.74,5.78c.65,2.68,2.22,3.48,4.83,2.59a13.35,13.35,0,0,0,3.65-1.85C105.87,39,108.26,37,110.71,35c.26-.22.5-.46.77-.65a.75.75,0,0,1,1.14.18c.33.4.15.72-.17,1-1.22,1.08-2.41,2.21-3.69,3.24-1.82,1.45-3.67,2.88-5.57,4.22a9.15,9.15,0,0,1-4.73,1.61c-2.36.14-3.93-.73-4.74-3a33.65,33.65,0,0,1-1-4.62c-.08-.41-.08-.84-.13-1.41-.93.94-1.69,1.85-2.58,2.59-2.4,2-4.83,4-7.31,5.86a6.89,6.89,0,0,1-4.07,1.48,2.44,2.44,0,0,1-2.8-2.71,22.47,22.47,0,0,1,.54-3c-.45.46-.87.92-1.31,1.37a24.11,24.11,0,0,1-5,4.25,9.35,9.35,0,0,1-1.75.83A2.44,2.44,0,0,1,64.78,44a9.61,9.61,0,0,1,.36-3.2c.55-1.88,1.31-3.7,2-5.54l-.76.3A52.9,52.9,0,0,1,57,38.84c-.46.1-.63.29-.7.8a13.12,13.12,0,0,1-3.58,7.79,6.75,6.75,0,0,1-3,1.84c-2.49.71-4.32-.42-4.73-3-.12-.71-.14-1.43-.21-2.17-2.89,2-5.93,3.72-9.57,1.74C34.52,46.93,33.94,48,33.25,49a5.44,5.44,0,0,1-3.06,2.3A4.06,4.06,0,0,1,25,48.63c-.4-1.09-.59-2.27-.89-3.44l-1.66,1.29c-1.64,1.26-3.23,2.6-4.94,3.75a7.44,7.44,0,0,1-2.86,1.06,2.49,2.49,0,0,1-2.85-2.24,9.34,9.34,0,0,1,.41-4.2,4,4,0,0,0,.17-.87c-.75,1-1.48,2-2.26,2.9C8.82,48.44,7.56,50,6.17,51.49A6.68,6.68,0,0,1,3.8,53C2.13,53.69,1,53.1.26,51.45a1.94,1.94,0,0,0-.15-.24Zm26-9.91.13.05a4.71,4.71,0,0,0,.36-.42c2.1-3.17,4.26-6.3,6.25-9.54A46.46,46.46,0,0,0,37.59,20a15,15,0,0,0,.57-3.54,1.71,1.71,0,0,0-1-1.87c-.75-.29-1.35.29-1.78.82a22.2,22.2,0,0,0-2.15,3,64.15,64.15,0,0,0-7,19.7C26.18,38.74,26.1,39.45,26,40.15ZM12.25,38.48a16.52,16.52,0,0,0-1.94.71,18.33,18.33,0,0,0-8,8.5,6.77,6.77,0,0,0-.51,1.73c-.14.74-.43,1.63.33,2.13s1.53,0,2.1-.53a25.39,25.39,0,0,0,3.22-3.17c2.15-2.69,4.17-5.49,6.24-8.24.33-.44.23-.81-.3-1A7.17,7.17,0,0,0,12.25,38.48Zm39.11-.71A11.5,11.5,0,0,0,47,42.69a5.55,5.55,0,0,0-.44,3.45A1.87,1.87,0,0,0,49,47.8,5.28,5.28,0,0,0,50.7,47a10.3,10.3,0,0,0,3.86-6.24c.13-.5.16-1,.25-1.59C53.41,39.19,52.19,39,51.36,37.77Zm42.71-6.72.24.07A50.42,50.42,0,0,0,102,18.42c-1.72.16-3.35.29-5,.48a.87.87,0,0,0-.51.56c-.43,1.68-.87,3.35-1.21,5C94.83,26.68,94.47,28.87,94.07,31.05Zm3.14-14c1.75-.16,3.46-.31,5.17-.5.14,0,.32-.27.37-.44.41-1.48.83-2.95,1.16-4.45A7.3,7.3,0,0,0,104,9.56c-.06-1-.57-1.31-1.45-1a4.67,4.67,0,0,0-1.62,1C98.94,11.74,98.07,14.44,97.21,17.09Zm-63,25.65h.22c.11-1,.29-1.9.31-2.84a17.35,17.35,0,0,0-.28-2.78.81.81,0,0,0-.55-.54c-.22,0-.49.22-.69.41a.88.88,0,0,0-.22.52A7.18,7.18,0,0,0,34.23,42.74ZM54.88,37.6c-.18-.89-.3-1.68-.52-2.45a.79.79,0,0,0-.63-.39c-.47,0-1.12.94-1.1,1.39.06,1,.25,1.2,1.1,1.35C54.05,37.55,54.39,37.56,54.88,37.6Z"/><g id="_群組_2" data-name="&lt;群組&gt;"><path id="_複合路徑_2" data-name="&lt;複合路徑&gt;" d="M205.45,30.69l-1.83,1.62a26.5,26.5,0,0,1-8.76,5.47,11.92,11.92,0,0,1-3.88.65c-2.68,0-4.4-1.67-4.79-4.35l-.12-.78c-4.38,3.67-8.89,7-14.31,8.73,0,1.81,0,3.66,0,5.51a33.28,33.28,0,0,1-2.47,11.87,19.24,19.24,0,0,1-2.14,3.66,3.36,3.36,0,0,1-2.6,1.5,2.19,2.19,0,0,1-2.22-1.17,7.52,7.52,0,0,1-.68-5.54q1.77-7.84,3.77-15.63c.84-3.25,1.91-6.45,2.88-9.67a2,2,0,0,0,.11-.82c-.91.88-1.75,1.83-2.72,2.62-2.46,2-5,3.94-7.48,5.86a6.1,6.1,0,0,1-3.61,1.3,2.41,2.41,0,0,1-2.66-2.19,8.61,8.61,0,0,1,.47-3.83,9,9,0,0,0,.4-1.84c-.71.73-1.4,1.48-2.14,2.18A45.62,45.62,0,0,1,142.6,42a10.55,10.55,0,0,1-4.69,1.51,4.17,4.17,0,0,1-3.66-1.64,10.81,10.81,0,0,1-2.12-5.3c-.1-.53-.17-1.07-.27-1.71l-4.2,4.23c-.31.32-.63.63-1.12.27s-.56-.82,0-1.37c1.38-1.38,2.74-2.78,4.12-4.16a3.76,3.76,0,0,0,1.15-2.72,48.91,48.91,0,0,1,6.78-23.52,10.61,10.61,0,0,1,3.89-4.09,5.45,5.45,0,0,1,1.38-.6,2.82,2.82,0,0,1,3.79,2.84,15.39,15.39,0,0,1-.52,4.48,41.94,41.94,0,0,1-5.56,12.08,75,75,0,0,1-7.68,10.2,1.51,1.51,0,0,0-.43,1.36c.26,1.49.38,3,.75,4.48.88,3.4,3,4.42,6.22,3a29.12,29.12,0,0,0,6.81-4.57,50.65,50.65,0,0,0,4.37-4.17,46,46,0,0,0,3.23-4.24c.33-.46.62-.84,1.21-.56s.45.77.29,1.25c-.77,2.23-1.57,4.44-2.29,6.68a12.34,12.34,0,0,0-.52,2.76c-.09,1.29.43,1.72,1.66,1.37a8.67,8.67,0,0,0,2.26-1.07,66.23,66.23,0,0,0,8.82-7.21,17.9,17.9,0,0,0,3.15-3.05,17.45,17.45,0,0,0,1.38-4.15,121.12,121.12,0,0,1,6.63-17.6,32.43,32.43,0,0,1,2.81-4.61A5.19,5.19,0,0,1,184.31,0,2.65,2.65,0,0,1,187,1.47a8.44,8.44,0,0,1,.65,5.35c-.45,3.53-2.21,6.46-4.17,9.33a59.07,59.07,0,0,1-10.56,11.32A8.15,8.15,0,0,0,170,32.1c-.26,1.29-.74,2.54-1.13,3.85,1.92.84,2.1,2.7,2.59,4.49.68-.26,1.34-.48,2-.75A45.38,45.38,0,0,0,186,31.22a1.65,1.65,0,0,0,.41-.81,14.85,14.85,0,0,1,3.15-6.26,7.69,7.69,0,0,1,3.78-2.52,2.46,2.46,0,0,1,3.2,3A5.25,5.25,0,0,1,195,27.37a15.47,15.47,0,0,1-6.44,3.72,1,1,0,0,0-.83,1,11.93,11.93,0,0,0,.12,2.08,3.24,3.24,0,0,0,3.63,2.7A10.69,10.69,0,0,0,196,35.68a31.72,31.72,0,0,0,7-4.87c.76-.7,1.58-1.33,2.37-2Zm-72.13-.11a1.94,1.94,0,0,0,.34-.21c3.91-4.77,7.64-9.67,10.1-15.39A23.21,23.21,0,0,0,146,7.5a7.17,7.17,0,0,0-.25-2.4,1,1,0,0,0-1.54-.72,6.25,6.25,0,0,0-2,1.24,19.84,19.84,0,0,0-2.45,3.11c-3.34,5.3-5,11.21-6,17.31C133.52,27.49,133.48,29,133.32,30.58Zm38.55-4.33c.18-.1.25-.12.3-.16,3.75-3.54,7.46-7.09,10.3-11.46,1.59-2.45,3.1-4.92,3.55-7.89a8.21,8.21,0,0,0-.14-4.06c-.33-1-.74-1.19-1.75-1.08a3.64,3.64,0,0,0-2.75,1.55,33,33,0,0,0-2.61,4.39A147.9,147.9,0,0,0,172.49,24C172.25,24.67,172.09,25.42,171.87,26.25Zm-4.7,15.42c-.51,1.88-1.08,3.89-1.58,5.91-.86,3.47-1.72,6.94-2.49,10.43a6.67,6.67,0,0,0,.29,4.18,1,1,0,0,0,1.57.6,3.4,3.4,0,0,0,1.28-1.12,28.08,28.08,0,0,0,2.08-4.09,34.31,34.31,0,0,0,1.89-12.47c0-1-.05-1.9-.07-2.72Zm21.15-12.09a13.54,13.54,0,0,0,6.2-4.07,2.76,2.76,0,0,0,.46-1.05c.26-1.1-.36-1.71-1.39-1.29a6.74,6.74,0,0,0-2.13,1.3A12.46,12.46,0,0,0,188.32,29.58Zm-18.51,11a4.08,4.08,0,0,0-1.28-2.92c-.11.48-.26.9-.32,1.34C168,40.36,168.38,40.7,169.81,40.62Z"/><path id="_路徑_" data-name="&lt;路徑&gt;" d="M159.69,18.69a1.3,1.3,0,0,1,1.56.75c.29.44.2.74-.24.91a6,6,0,0,1-1.5.4,1.28,1.28,0,0,1-1.38-1.17c0-.84.65-.73,1.16-.85C159.38,18.71,159.48,18.71,159.69,18.69Z"/></g></g></g></g></svg>