<svg xmlns="http://www.w3.org/2000/svg" viewBox="0 0 219.21 85.61"><title>aboutfancy</title><g id="圖層_2" data-name="圖層 2"><g id="圖層_1-2" data-name="圖層 1"><path id="_複合路徑_" data-name="&lt;複合路徑&gt;" d="M0,48.66c.1-1.93.06-3.89.31-5.8.83-6.25,3.61-11.72,7.19-16.79A34.17,34.17,0,0,1,19.32,15.19a12.1,12.1,0,0,1,6-1.72,3.89,3.89,0,0,1,4,3c.05.17.05.43.16.49,1,.52.49,1.21.31,1.91C28,25.7,25.22,32.25,24,39.23a43.5,43.5,0,0,0-.62,7.21c0,2.7,1.27,3.46,3.69,2.28a14.33,14.33,0,0,0,3.49-2.37c1.75-1.66,3.34-3.5,4.95-5.3a1.72,1.72,0,0,0,.3-1.06,59,59,0,0,1,4.51-23.13,23.25,23.25,0,0,1,1.49-2.72,4.74,4.74,0,0,1,.66-.82c1.64-1.69,3.74-1.22,4.5,1a8,8,0,0,1,.18,4.11,38.64,38.64,0,0,1-3.31,10c-2,4-4.12,8-6.16,12a2.06,2.06,0,0,0-.28,1.23,15.43,15.43,0,0,0,1.05,3.72,2.42,2.42,0,0,0,4.28.38,19.82,19.82,0,0,0,1.86-3.78c.08-.18-.13-.59-.32-.79a8.82,8.82,0,0,1-2.39-5.22,4.5,4.5,0,0,1,0-1.32,2.14,2.14,0,0,1,1.81-1.9,2,2,0,0,1,2.32,1.61,12.82,12.82,0,0,1,.42,5.61c-.13,1.11-.08,1.2,1,1.45a4.72,4.72,0,0,0,3.72-.77,16.37,16.37,0,0,0,4.78-4.92,10.68,10.68,0,0,1,1.54-2A7.43,7.43,0,0,0,60,30.29a1.91,1.91,0,0,1,2-1.35c1,0,1.47.67,1.81,1.47.27.64.46,1.33.73,2.14a27.75,27.75,0,0,0,2.75-1.12c2.63-1.4,5.23-2.86,7.83-4.31.44-.24.86-.63,1.35-.15s.11.91-.13,1.34A16.74,16.74,0,0,0,74,36.41a4.78,4.78,0,0,0,0,.53c.17,1.37.74,1.68,1.88.92a20.71,20.71,0,0,0,5.13-5.35c1.43-1.95,2.73-4,4.09-6,.28-.42.53-.94,1.17-.56s.28.8.12,1.24c-.75,2.11-1.5,4.22-2.23,6.34a4.62,4.62,0,0,0-.18,1c-.14,1.49.6,2.08,2,1.5a8.12,8.12,0,0,0,2-1.2,59.49,59.49,0,0,0,8.56-9.31,1.36,1.36,0,0,0,.28-.88c-.45-4,.11-7.9.63-11.82,0-.26,0-.51.09-.89l-3.78,1c-.51.13-1,.26-1.2-.45s.38-.81.9-.94c1.21-.29,2.4-.65,3.61-.91A1.06,1.06,0,0,0,98,9.73c.5-1.94,1-3.87,1.68-5.77a9.61,9.61,0,0,1,1.21-2.16,4.79,4.79,0,0,1,1-1.07c2-1.5,4.21-.61,4.37,1.93A34.3,34.3,0,0,1,106,7.5a9.3,9.3,0,0,1-.14.95l6.1-1.27a1.87,1.87,0,0,1,.78-.14c.3.08.77.31.77.48a1.49,1.49,0,0,1-.49.87c-.11.12-.39.1-.59.14-2.1.49-4.2,1-6.31,1.45a.91.91,0,0,0-.82.76,45.16,45.16,0,0,1-6.68,14.4,1.1,1.1,0,0,0-.23.71,41.69,41.69,0,0,0,1.27,5.24c.86,2.39,2.43,3,4.69,1.84a20.57,20.57,0,0,0,4.35-3.14c1.76-1.61,3.32-3.44,5-5.17.18-.2.35-.48.57-.54a1.25,1.25,0,0,1,.92.12c.14.11.13.61,0,.83a6.27,6.27,0,0,1-.92,1.08c-2,2.09-4,4.22-6.15,6.24a9.23,9.23,0,0,1-4.23,2.32c-2.36.6-4.1-.07-5.18-2.25a25.27,25.27,0,0,1-1.26-3.58c-.15-.44-.2-.92-.35-1.61-.42.54-.71,1-1.05,1.33-2.42,2.54-4.78,5.13-7.32,7.55a7.06,7.06,0,0,1-3.12,1.51c-1.77.43-3-.71-3-2.54,0-.76.17-1.51.27-2.35-1,1.21-1.82,2.43-2.84,3.47a20.26,20.26,0,0,1-3.64,3c-1.8,1.1-3.48.27-3.63-1.83a22.8,22.8,0,0,1,.47-5,25.71,25.71,0,0,1,.88-3c-1.13.62-2.15,1.25-3.23,1.77C69,32.1,67.12,33,65.23,33.78a.84.84,0,0,0-.61.9,12.26,12.26,0,0,1-2,6.71,6.49,6.49,0,0,1-3.36,2.76,2.9,2.9,0,0,1-4-1.72,17.13,17.13,0,0,1-.68-2.49c-2.4,2.05-4.93,3.88-8.46,2.48a13.58,13.58,0,0,1-.75,1.78,13.26,13.26,0,0,1-2,2.9A3.8,3.8,0,0,1,37.16,46,29.22,29.22,0,0,1,36,43c-.48.48-1,1-1.5,1.48-1.71,1.58-3.34,3.26-5.18,4.67a9.76,9.76,0,0,1-3.54,1.52,2.7,2.7,0,0,1-3.38-2.08,16.1,16.1,0,0,1-.25-6.94c.16-1.25.38-2.49.45-3.8l-.42.76a70.61,70.61,0,0,1-9.52,14.6,23.85,23.85,0,0,1-3.15,3c-2.35,1.87-6.19,2.24-8.13-2-.11-.23-.26-.44-.39-.66ZM28.4,17.87a9.09,9.09,0,0,1-.63-1.24A2.06,2.06,0,0,0,26.06,15,6.05,6.05,0,0,0,24.31,15a13.48,13.48,0,0,0-5.93,2.43,39.38,39.38,0,0,0-16.11,23,21.85,21.85,0,0,0,0,12c1.09,3.78,3.89,4.76,7,2.32a23,23,0,0,0,3.31-3.31A63.23,63.23,0,0,0,20,39.78c3-5.69,5.8-11.44,7.22-17.76C27.52,20.59,28,19.19,28.4,17.87Zm8.81,20.21.24.07c.62-1.13,1.26-2.25,1.86-3.38a65.86,65.86,0,0,0,6.13-15.14,20,20,0,0,0,.38-4.1,1.6,1.6,0,0,0-1-1.71c-.81-.22-1.34.45-1.67,1.06a37,37,0,0,0-2.24,4.5,59.76,59.76,0,0,0-3.43,14.86C37.3,35.51,37.29,36.8,37.21,38.08Zm22.71-4.65c-2.09,1.86-3.66,3.89-3.74,6.74a2.49,2.49,0,0,0,1.28,2.62c1.08.48,2-.15,2.79-.86a9.31,9.31,0,0,0,2.89-6c.07-.51,0-1,.08-1.58A3.44,3.44,0,0,1,59.92,33.43Zm38-10.6.33,0a45.54,45.54,0,0,0,5.58-12.32c-.59.13-1,.19-1.4.3-1.13.3-2.62.3-3.29,1s-.5,2.17-.61,3.32C98.31,17.72,98.14,20.28,97.94,22.83ZM99.36,10c.32,0,.55-.06.77-.12,1.26-.29,2.52-.58,3.77-.92a.8.8,0,0,0,.41-.57c.23-1.33.44-2.67.59-4a7.17,7.17,0,0,0-.06-1.85c-.16-1-.71-1.33-1.61-.81a4.38,4.38,0,0,0-1.3,1.16C100.4,5,99.86,7.46,99.36,10ZM45.08,39.79a10.66,10.66,0,0,0-.4-5.1c-.09-.25-.45-.39-.68-.58-.22.28-.6.56-.63.86A6.34,6.34,0,0,0,45.08,39.79ZM63,32.9a8.6,8.6,0,0,0-.34-1.54,4.51,4.51,0,0,0-.75-1c-.32.4-.8.76-.92,1.21-.22.82.27,1.31,1.14,1.35C62.39,33,62.65,32.92,63,32.9Z"/><path id="_複合路徑_2" data-name="&lt;複合路徑&gt;" d="M109.75,41.92c1.7-.18,3.4-.48,5.1-.5a28,28,0,0,1,4.92.4,5.8,5.8,0,0,1,4.65,4.38,14.07,14.07,0,0,1,.19,6.58c-.29,1.74-.7,3.47-1.06,5.25,1-.08,2-.21,3-.22a3.4,3.4,0,0,1,1.61.33,1.14,1.14,0,0,1,.39,1c-.18.45-.66.49-1.12.16a1.31,1.31,0,0,0-.87-.29,26.63,26.63,0,0,0-3.31.57c-.26.06-.5.51-.61.84-1.36,4.21-2.68,8.44-4.06,12.64-.47,1.42-1.11,2.78-1.73,4.29,5.76-1.11,10.84-3.22,14.56-7.85.73-.91,1.31-2,2-2.93a13.61,13.61,0,0,1,6-5.36,3.87,3.87,0,0,1,3.62.16c.09-.13.17-.35.3-.4a1.83,1.83,0,0,1,1-.14c.15.06.27.62.19.88-.5,1.67-1.16,3.29-1.58,5a15.56,15.56,0,0,0-.5,3.84c0,1.81,1,2.32,2.44,1.25a21.26,21.26,0,0,0,3.43-3.06c2.56-2.9,5-5.91,7.47-8.87a19.32,19.32,0,0,1,1.54-1.71,2.19,2.19,0,0,1,2.35-.63,2.29,2.29,0,0,1,1.49,2c.07.61.06,1.23.09,2,.51-.66,1-1.28,1.44-1.88a12.05,12.05,0,0,1,4.89-4,4.81,4.81,0,0,1,1.64-.3,1.87,1.87,0,0,1,2.05,2.05,20.82,20.82,0,0,1-.58,3.29c-.3,1.35-.76,2.67-1,4s.32,1.93,1.77,1.45a5.88,5.88,0,0,0,2.25-1.16c1.85-1.78,3.6-3.66,5.33-5.55a6.23,6.23,0,0,0,.81-1.56c1.27-2.55,2.9-4.76,5.66-5.83a2.78,2.78,0,0,1,3.81,1.71,1.1,1.1,0,0,1-.28,1c-.37.3-.79.13-1-.36-.46-1.23-1.39-1.49-2.76-.71a8.57,8.57,0,0,0-3.76,4.13A23.39,23.39,0,0,0,180,63.11c-.36,2.22,1.19,3.31,3.33,2.54a14.21,14.21,0,0,0,5-3.25c2-2,4-4,5.89-6.12,1.68-1.81,3.28-3.71,5-5.54a1.14,1.14,0,0,1,1-.28c.5.22.39.68.15,1.13a17.39,17.39,0,0,0-1.83,8c0,.71,0,1.71.82,1.88a2.37,2.37,0,0,0,1.84-.75,55.58,55.58,0,0,0,4.28-5.29c1.4-2,2.58-4.17,3.84-6.28.26-.43.5-.83,1.09-.62s.46.73.36,1.18q-1.11,5.3-2.21,10.57a2.51,2.51,0,0,0,0,.36c.32-.27.57-.44.78-.65l8.07-8.34c.14-.15.25-.39.42-.44.37-.12.86-.31,1.14-.16.55.29.26.76-.07,1.1-2.21,2.34-4.41,4.69-6.67,7-1.17,1.21-2.48,2.28-3.65,3.49a4.19,4.19,0,0,0-1,1.61c-1.55,4.8-3,9.64-4.61,14.42a23.6,23.6,0,0,1-2.16,4.25,6.7,6.7,0,0,1-1.57,1.79,3.15,3.15,0,0,1-5.28-1.67,8.34,8.34,0,0,1,.07-4.21,18,18,0,0,1,4.4-8.09c2.42-2.63,5-5.09,7.51-7.65a2.84,2.84,0,0,0,.73-1.25c.66-2.65,1.26-5.33,1.71-8.06l-.42.57c-1.65,2.2-3.26,4.42-5,6.58a7.37,7.37,0,0,1-1.86,1.61c-1.68,1.08-3.47.42-3.78-1.55a25.78,25.78,0,0,1,0-4.65,4.5,4.5,0,0,0,0-1.28c-1.1,1.22-2.13,2.5-3.31,3.63-2.29,2.21-4.59,4.42-7,6.46a11,11,0,0,1-3.74,1.94c-2.71.84-4.68-.7-4.81-3.53,0-.29,0-.58,0-1-.73.76-1.34,1.42-2,2a10.68,10.68,0,0,1-4.67,3.09c-2.29.6-3.68-.5-3.55-2.84a8.43,8.43,0,0,1,.25-1.66c.27-1.06.63-2.1.9-3.15a21.8,21.8,0,0,0,.44-2.25c.11-.78-.32-1.07-1-.84a6.28,6.28,0,0,0-2.16.94,21,21,0,0,0-3.3,3.3,20.44,20.44,0,0,0-3.77,7.27,10.25,10.25,0,0,1-.7,1.81c-.23.5-.52,1-1.2.71s-.55-.79-.38-1.29c.27-.78.63-1.53.87-2.32.54-1.8,1.1-3.6,1.52-5.43a6.75,6.75,0,0,0,0-2.37c-.1-.69-.59-.87-1.17-.46a5.27,5.27,0,0,0-1.07,1c-1.62,2.07-3.11,4.25-4.85,6.22s-3.88,4-5.93,6a6.36,6.36,0,0,1-2.44,1.35,2.22,2.22,0,0,1-3-1.78,17.35,17.35,0,0,1-.17-3.07c0-.43.11-.86.06-1.33-.57.92-1.1,1.86-1.69,2.76-1,1.55-2,3.16-3.15,4.6a5.91,5.91,0,0,1-2.38,1.72,2.22,2.22,0,0,1-3.09-1.75,14.88,14.88,0,0,1-.18-2c-.05,0-.14,0-.19.06a27,27,0,0,1-13.65,6.09,1.67,1.67,0,0,0-1.21.84,30.58,30.58,0,0,1-2.83,3.74,6,6,0,0,1-7.44,1.34A8.2,8.2,0,0,1,101,80.9a2,2,0,0,1,1.49-3,15.54,15.54,0,0,1,2.9-.12h9a.91.91,0,0,0,1-.7c1.48-4,3-8.08,4.42-12.14.53-1.5.91-3,1.42-4.77l-8.43,3-.5.2a.69.69,0,0,1-1-.4c-.2-.5,0-.78.5-.95,1.8-.67,3.59-1.37,5.4-2,1.34-.47,2.72-.81,4.06-1.25a1.17,1.17,0,0,0,.66-.59,27.06,27.06,0,0,0,1.51-9.39,11.05,11.05,0,0,0-.49-2.6,4.22,4.22,0,0,0-3.37-2.93A19.31,19.31,0,0,0,113,43a29.79,29.79,0,0,0-11,3.28,11.69,11.69,0,0,0-1.48,1C98.73,48.57,98.4,50,99.5,52.07c.31.56.8,1,1.1,1.59.15.27.05.67.06,1-.37,0-.89.1-1.09-.1a7,7,0,0,1-2.06-3.93,4.28,4.28,0,0,1,1.69-4.15,20.08,20.08,0,0,1,6.4-3.34c1.26-.42,2.54-.77,3.81-1.16Zm96,23.61-.24-.19c-2.07,2.22-4.2,4.39-6.21,6.67a14.24,14.24,0,0,0-4.08,9.91,2,2,0,0,0,1.2,2.11,2.13,2.13,0,0,0,2.45-.79,9.35,9.35,0,0,0,1.33-1.87C202.78,76.36,204.16,70.91,205.72,65.53Zm-73.62,8.7c.17,1,.67,1.33,1.53.91a3.17,3.17,0,0,0,1.06-.78,29.6,29.6,0,0,0,2.5-3.2c1.59-2.56,3.08-5.19,4.61-7.78.4-.69.18-1.17-.6-1a7.85,7.85,0,0,0-2.68,1c-2.5,1.58-4,4-5.4,6.55A8.2,8.2,0,0,0,132.1,74.23ZM114,79.52c-3-.11-5.93-.23-8.86-.32a13.44,13.44,0,0,0-2.2,0c-.83.1-1,.49-.59,1.23a7.12,7.12,0,0,0,4.45,3.39,4.41,4.41,0,0,0,4-.64A11.41,11.41,0,0,0,114,79.52Z"/></g></g></svg>