<?xml version="1.0" encoding="utf-8"?>
<!-- Generator: Adobe Illustrator 22.0.1, SVG Export Plug-In . SVG Version: 6.00 Build 0)  -->
<svg version="1.1" id="圖層_1" xmlns="http://www.w3.org/2000/svg" xmlns:xlink="http://www.w3.org/1999/xlink" x="0px" y="0px"
	 viewBox="0 0 29 170.9" style="enable-background:new 0 0 29 170.9;" xml:space="preserve">
<style type="text/css">
	.st0{fill:#FFFFFF;}
	.st1{fill:#091B30;}
</style>
<title>btn-contact</title>
<g id="_群組_">
	<rect id="_矩形_" class="st0" width="29" height="170.9"/>
	<g id="_群組_2">
		<path id="_複合路徑_" class="st1" d="M12,41.2c-1.5-0.8-2.5-2.4-2.5-4.1c0-2.5,2-4.5,4.5-4.5c2.5,0.1,4.5,2.2,4.4,4.7
			c0,1.6-1,3.1-2.4,3.9l-0.9-2c1.1-0.6,1.6-2,0.9-3.2c-0.6-1.1-2-1.6-3.2-0.9s-1.6,2-0.9,3.2c0.2,0.4,0.5,0.7,0.9,0.9L12,41.2z"/>
		<path id="_複合路徑_2" class="st1" d="M18.4,48.6c0,2.5-2,4.5-4.5,4.5s-4.5-2-4.5-4.5c0-2.5,2-4.5,4.5-4.6
			C16.5,44.1,18.4,46.2,18.4,48.6z M11.6,48.6c0,1.3,1,2.3,2.3,2.3s2.3-1,2.3-2.3c0-1.3-1-2.3-2.3-2.3
			C12.7,46.3,11.6,47.4,11.6,48.6C11.6,48.6,11.6,48.6,11.6,48.6z"/>
		<path id="_複合路徑_3" class="st1" d="M9.7,56.6h8.6v1.9l-4.8,3.8h4.8v2.2H9.7v-1.9l4.8-3.8H9.7V56.6z"/>
		<path id="_複合路徑_4" class="st1" d="M18.2,67.8v7.6h-2.1v-2.7H9.7v-2.2h6.4v-2.7H18.2z"/>
		<path id="_複合路徑_6" class="st1" d="M12,97c-1.5-0.8-2.5-2.4-2.5-4.1c0-2.5,2-4.5,4.5-4.6c2.5,0,4.6,2.1,4.5,4.6
			c0,1.7-1,3.3-2.5,4.1l-0.9-2c1.1-0.6,1.6-2,0.9-3.2c-0.6-1.1-2-1.6-3.2-0.9c-1.1,0.6-1.6,2-0.9,3.2c0.2,0.4,0.5,0.7,0.9,0.9L12,97
			z"/>
		<path id="_複合路徑_7" class="st1" d="M18.2,99.7v7.6h-2.1v-2.7H9.7v-2.2h6.4v-2.7H18.2z"/>
		<path id="_複合路徑_8" class="st1" d="M9.7,115.9h8.6v2.2l-5.4,2.5l5.4,2.4v2.2H9.7V123h4l-3.7-1.7v-1.4l3.7-1.8h-4L9.7,115.9
			z"/>
		<path id="_複合路徑_9" class="st1" d="M18.2,129.1v6.6h-2.1v-4.4h-1.2v3.6h-2v-3.6h-1.1v4.4H9.7v-6.6H18.2z"/>
	</g>
</g>
<g>
	<path d="M18.5,82.3l-8.8,3.6v-2.5l1.3-0.5v-3.5l-1.3-0.5v-2.5l8.8,3.6V82.3z M15.6,81.1l-2.6-1v1.9L15.6,81.1z"/>
</g>
</svg>
