<svg xmlns="http://www.w3.org/2000/svg" viewBox="0 0 30.06 32.88"><defs><style>.cls-1{fill:#fff;}</style></defs><title>btn-navopen</title><g id="圖層_2" data-name="圖層 2"><g id="圖層_1-2" data-name="圖層 1"><g id="_群組_" data-name="&lt;群組&gt;"><g id="_群組_2" data-name="&lt;群組&gt;"><g id="_群組_3" data-name="&lt;群組&gt;"><line id="_路徑_" data-name="&lt;路徑&gt;" class="cls-1" x1="0.06" y1="14.88" x2="30.06" y2="14.88"/><rect id="_路徑_2" data-name="&lt;路徑&gt;" class="cls-1" x="0.06" y="12.88" width="30" height="3"/></g><g id="_群組_4" data-name="&lt;群組&gt;"><line id="_路徑_3" data-name="&lt;路徑&gt;" class="cls-1" x1="0.06" y1="23.88" x2="30.06" y2="23.88"/><rect id="_路徑_4" data-name="&lt;路徑&gt;" class="cls-1" x="0.06" y="21.88" width="30" height="3"/></g><g id="_群組_5" data-name="&lt;群組&gt;"><line id="_路徑_5" data-name="&lt;路徑&gt;" class="cls-1" x1="0.06" y1="31.88" x2="30.06" y2="31.88"/><rect id="_路徑_6" data-name="&lt;路徑&gt;" class="cls-1" x="0.06" y="29.88" width="30" height="3"/></g></g><g id="_群組_6" data-name="&lt;群組&gt;"><path id="_複合路徑_" data-name="&lt;複合路徑&gt;" class="cls-1" d="M0,6V0H1.54L3.27,3.78,5,0H6.55V6H5V3.17L3.78,5.76h-1L1.53,3.17V6Z"/><path id="_複合路徑_2" data-name="&lt;複合路徑&gt;" class="cls-1" d="M9.24,0h4.6V1.49H10.77v.86h2.52V3.74H10.77V4.5h3.07V6H9.24Z"/><path id="_複合路徑_3" data-name="&lt;複合路徑&gt;" class="cls-1" d="M16.35,6V0h1.31l2.67,3.35V0h1.52V6H20.56L17.89,2.65V6Z"/><path id="_複合路徑_4" data-name="&lt;複合路徑&gt;" class="cls-1" d="M30,0V3.37A2.57,2.57,0,0,1,27.21,6.1a2.56,2.56,0,0,1-2.75-2.73V0H26V3.28c0,.86.41,1.34,1.21,1.34s1.23-.48,1.23-1.34V0Z"/></g></g></g></g></svg>