<?xml version="1.0" encoding="utf-8"?>
<!-- Generator: Adobe Illustrator 22.0.1, SVG Export Plug-In . SVG Version: 6.00 Build 0)  -->
<svg version="1.1" id="圖層_1" xmlns="http://www.w3.org/2000/svg" xmlns:xlink="http://www.w3.org/1999/xlink" x="0px" y="0px"
	 viewBox="0 0 501.8 272.8" style="enable-background:new 0 0 501.8 272.8;" xml:space="preserve">
<style type="text/css">
	.st0{fill:#091B30;}
</style>
<title>contact</title>
<path id="_複合路徑_" class="st0" d="M35.7,0v4.4h-30v32.7h30v4.4h-30v37.1H1.2V0H35.7z"/>
<path id="_複合路徑_2" class="st0" d="M101.3,78.7h-4.4v-9.8c-0.9,1.2-1.8,2.3-2.8,3.3c-5,5.2-11.9,8-19.1,7.9
	c-7.2,0.1-14.1-2.8-19.1-7.9c-5.2-5-8-11.9-7.9-19.1c-0.1-7.2,2.7-14.1,7.9-19.1c5-5.2,11.9-8,19.1-7.9c7.2-0.1,14.1,2.7,19.1,7.9
	c1,1,1.9,2.1,2.8,3.3v-6.8h4.4V78.7z M96.9,57.4v-8.8c-2.1-10.4-11.3-17.9-21.9-18c-12.3,0-22.3,10-22.3,22.3
	c0,12.3,10,22.3,22.3,22.3c0,0,0,0,0,0C85.6,75.3,94.7,67.8,96.9,57.4z"/>
<path id="_複合路徑_3" class="st0" d="M120.5,41.2v37.5H116V30.4h4.4v3.1c3.7-3.8,8.7-6,14.1-6c5.7,0,10.3,1.8,13.9,5.4
	c3.6,3.6,5.6,8.4,5.6,13.5v32.3h-4.4V46.8c0.1-4-1.6-7.8-4.4-10.5c-5.8-5.8-15.3-5.9-21.1-0.1C122.5,37.6,121.3,39.3,120.5,41.2z"/>
<path id="_複合路徑_4" class="st0" d="M210.1,67.1l4.7,1.7c-0.9,1.2-1.8,2.3-2.9,3.4c-10.5,10.6-27.6,10.6-38.2,0c0,0,0,0,0,0
	c-5.2-5-8-11.9-7.9-19.1c-0.1-7.2,2.8-14.1,7.9-19.1c10.5-10.6,27.6-10.6,38.2,0c0,0,0,0,0,0c1,1,2,2.2,2.9,3.3l-4.7,1.7
	c-0.5-0.6-1-1.2-1.6-1.8c-8.7-8.7-22.9-8.7-31.6,0.1c-4.1,4.2-6.5,9.8-6.5,15.7c0,12.3,10,22.3,22.3,22.3c5.9,0,11.6-2.3,15.8-6.5
	C209.1,68.2,209.6,67.7,210.1,67.1z"/>
<path id="_複合路徑_5" class="st0" d="M243.9,74.3L233,97.1h-4.3l13-27.3l-18.8-39.4h5l16,34.6l16-34.6h5L243.9,74.3L243.9,74.3
	z"/>
<path id="_複合路徑_6" class="st0" d="M276,0h4.4v32.9c3.6-3.5,8.4-5.5,13.5-5.4c5.7,0,10.3,1.8,13.9,5.4
	c3.6,3.6,5.6,8.5,5.5,13.5v32.3h-4.4V46.8c0.1-4-1.6-7.8-4.5-10.5c-5.8-5.8-15.2-5.8-21.1-0.1c-1.2,1.2-2.2,2.6-3,4.1v38.4H276V0z"
	/>
<path id="_複合路徑_7" class="st0" d="M337.3,69.6c4,3.7,9.3,5.8,14.9,5.7c5.9,0.1,11.6-2.3,15.8-6.5c0.6-0.6,1.1-1.1,1.6-1.7
	l4.7,1.7c-0.9,1.2-1.8,2.3-2.9,3.4c-10.5,10.6-27.6,10.6-38.2,0c0,0,0,0,0,0c-5.2-5-8-11.9-7.9-19.1c-0.1-7.2,2.7-14.1,7.9-19.1
	c9.7-9.7,25.1-10.6,35.9-2.2c0.8,0.7,1.6,1.4,2.4,2.2c0.3,0.3,0.6,0.6,0.8,0.9l-3.3,3.3L337.3,69.6z M365.5,35.2
	c-8.9-6.6-21.3-5.7-29.1,2.1c-4.3,4.1-6.6,9.8-6.5,15.8c-0.1,4.8,1.5,9.5,4.4,13.4L365.5,35.2z"/>
<path id="_複合路徑_8" class="st0" d="M403.3,74.3l-10.9,22.8h-4.3l13-27.3l-18.8-39.4h5l16,34.6l16-34.6h5L403.3,74.3
	L403.3,74.3z"/>
<path id="_複合路徑_9" class="st0" d="M481.4,63.3c-4,4.2-8.5,6.2-13.4,6.2c-9.8-0.1-17.8-8-17.9-17.8c0-9.9,8-17.9,17.9-18
	c4.9,0,9.4,2.1,13.4,6.2v-5.6h4v31.9c0.3,1.2,1.4,2.1,2.7,2.1c1.5,0,3.5-1.8,6-5.4c2.4-3.2,3.8-7.1,3.8-11.2
	c0.1-8-3.1-15.6-8.8-21.1c-11.6-11.7-30.4-11.7-42-0.1c0,0-0.1,0.1-0.1,0.1c-5.7,5.5-8.8,13.2-8.7,21.1c-0.1,7.9,3,15.6,8.7,21.1
	c5.5,5.7,13.1,8.8,21,8.7c5.6,0,9.8-0.8,12.3-2.4l2.8,3c-3.9,2.3-9,3.4-15.1,3.4c-9,0.1-17.7-3.5-23.9-9.9
	c-6.5-6.2-10.1-14.9-10-23.8c-0.1-9,3.5-17.7,10-23.9c13.1-13.2,34.4-13.3,47.6-0.2c0.1,0.1,0.1,0.1,0.2,0.2
	c6.4,6.3,10,14.9,9.9,23.9c0,4.2-1.5,8.6-4.5,13.4s-6.4,7.1-10,7.1c-0.4,0-0.8,0-1.2-0.1c-2.8-0.6-4.3-2.2-4.6-4.9V63.3z
	 M481.5,54.9v-6.5c-1.7-7.4-9.1-11.9-16.5-10.2c-2.5,0.6-4.8,1.9-6.6,3.7c-2.6,2.6-4.1,6.1-4,9.8c0,7.6,6.2,13.7,13.8,13.7
	C474.5,65.4,480,61.1,481.5,54.9L481.5,54.9z"/>
<path id="_複合路徑_10" class="st0" d="M67.1,201.5c-7.1,7-16.8,10.9-26.8,10.7c-10.7,0.2-21-4.1-28.5-11.8
	c-15.7-15.7-15.7-41.3,0-57c7.5-7.7,17.8-12,28.5-11.8c10-0.1,19.8,3.6,27.1,10.5l-3.3,3c-6.5-5.9-15-9.1-23.8-9
	c-9.5-0.1-18.7,3.7-25.3,10.6c-14,14-14,36.6,0,50.6c6.6,6.8,15.8,10.6,25.3,10.5c8.1,0.1,16.1-2.7,22.4-7.8v-24h4.4V201.5z"/>
<path id="_複合路徑_11" class="st0" d="M199.2,211.3h-4.4v-9.8c-0.9,1.2-1.8,2.3-2.8,3.3c-10.5,10.6-27.6,10.6-38.2,0
	c0,0,0,0,0,0c-10.6-10.5-10.6-27.6-0.1-38.2c5.1-5.1,12-7.9,19.1-7.9c7.2-0.1,14.1,2.7,19.1,7.9c1,1,1.9,2.1,2.8,3.3V163h4.4V211.3z
	 M194.8,190v-8.8c-2.1-10.4-11.3-17.9-21.9-17.9c-12.3,0-22.3,10-22.3,22.3s10,22.3,22.3,22.3c5.9,0,11.6-2.4,15.8-6.5
	C191.8,198.3,193.9,194.3,194.8,190z"/>
<path id="_複合路徑_12" class="st0" d="M81.1,163h4.4v1.1c5.6-5.4,14.5-5.3,20,0.2c0.8,0.7,1.4,1.6,2,2.5c0.6-0.9,1.3-1.7,2-2.5
	c5.6-5.6,14.7-5.6,20.3,0c2.6,2.6,4.1,6,4.2,9.7v37.3h-4.4V174h0c-0.3-5.5-4.9-9.7-10.4-9.4c-2.5,0.1-4.8,1.2-6.5,2.9
	c-1.9,1.9-3,4.5-2.9,7.2v36.6h-4.4V174l0,0c-0.3-5.3-4.6-9.5-9.9-9.4c-5.1,0-9.4,3.9-9.9,9.1v37.7h-4.4V163z"/>
<path id="_複合路徑_13" class="st0" d="M221.7,147.1c0.9,0.8,1.3,1.9,1.3,3.1c0,2.4-1.9,4.4-4.4,4.4c0,0,0,0-0.1,0
	c-1.2,0-2.3-0.4-3.1-1.3c-0.9-0.8-1.3-2-1.3-3.1c0-1.2,0.5-2.3,1.3-3.1C217.2,145.4,220,145.4,221.7,147.1L221.7,147.1z M220.8,163
	v48.3h-4.4V163H220.8z"/>
<path id="_複合路徑_14" class="st0" d="M240.9,132.6v78.7h-4.4v-78.7H240.9z"/>
<path id="_複合路徑_15" class="st0" d="M260.8,204.4c1.7,1.7,1.8,4.5,0.1,6.2c0,0,0,0-0.1,0.1c-1.7,1.7-4.5,1.7-6.2,0
	c-1.7-1.7-1.7-4.5,0-6.2c0,0,0,0,0,0C256.3,202.7,259,202.7,260.8,204.4z"/>
<path id="_複合路徑_16" class="st0" d="M315.8,199.7l4.7,1.7c-0.9,1.2-1.8,2.3-2.9,3.4c-10.6,10.5-27.7,10.5-38.2,0
	c-10.5-10.6-10.5-27.7,0-38.2c10.5-10.5,27.6-10.6,38.2,0c0,0,0,0,0,0c1,1,2,2.2,2.9,3.4l-4.7,1.7c-0.5-0.6-1-1.2-1.6-1.8
	c-8.7-8.7-22.9-8.7-31.6,0c-8.7,8.7-8.7,22.9,0,31.6c8.7,8.7,22.9,8.7,31.6,0c0,0,0,0,0,0C314.8,200.8,315.3,200.2,315.8,199.7z"/>
<path id="_複合路徑_17" class="st0" d="M356.3,158.6c14.9,0,27,12.1,27,27c0,7.2-2.8,14.1-7.9,19.2c-10.6,10.5-27.7,10.5-38.2,0
	c-10.5-10.6-10.5-27.7,0-38.2C342.2,161.4,349.1,158.5,356.3,158.6z M340.5,169.9c-8.7,8.7-8.7,22.9,0,31.6c8.7,8.7,22.9,8.7,31.6,0
	c8.7-8.7,8.7-22.9,0-31.6c-4.2-4.2-9.9-6.5-15.8-6.5C350.3,163.2,344.6,165.6,340.5,169.9z"/>
<path id="_複合路徑_18" class="st0" d="M395.1,163h4.4v1.1c5.6-5.4,14.5-5.3,20,0.2c0.8,0.7,1.4,1.6,2,2.5
	c0.6-0.9,1.3-1.7,2-2.5c5.6-5.6,14.7-5.6,20.3,0c2.6,2.6,4.1,6,4.2,9.7v37.3h-4.4V174l0,0c-0.3-5.5-4.9-9.7-10.4-9.4
	c-2.5,0.1-4.8,1.2-6.5,2.9c-1.9,1.9-3,4.5-2.9,7.2v36.6h-4.4V174h0c-0.3-5.5-4.9-9.7-10.4-9.4c-5,0.2-9,4.1-9.4,9v37.7H395
	L395.1,163z"/>
<g id="_群組_2">
	<path id="_複合路徑_19" class="st0" d="M16.2,270.8c-1.3,1.3-3.1,2-4.9,2c-4,0.1-7.4-3-7.6-7.1c-0.1-4,3-7.4,7.1-7.6
		c0.2,0,0.4,0,0.5,0c1.8,0,3.6,0.7,4.9,1.9l-0.6,0.6c-1.2-1.1-2.7-1.7-4.3-1.6c-1.7,0-3.4,0.7-4.6,1.9c-2.5,2.5-2.6,6.6,0,9.2
		c0,0,0,0,0,0c1.2,1.2,2.9,1.9,4.6,1.9c1.5,0,2.9-0.5,4.1-1.4v-4.4h0.8L16.2,270.8z"/>
	<path id="_複合路徑_20" class="st0" d="M20.4,270.9c1.6,1.5,4.1,1.4,5.6-0.1c0.1-0.1,0.2-0.2,0.3-0.3l0.9,0.3
		c-0.2,0.2-0.3,0.4-0.5,0.6c-1.9,1.9-5,1.9-6.9,0c0,0,0,0,0,0c-1.9-2-1.8-5.1,0.1-7c0.9-0.9,2.1-1.4,3.4-1.4c1.1,0,2.2,0.3,3.1,1
		c0.2,0.1,0.3,0.3,0.4,0.4c0.1,0,0.1,0.1,0.1,0.2l-0.6,0.6L20.4,270.9z M25.5,264.6c-1.8-1.3-4.3-1-5.7,0.8
		c-0.5,0.7-0.8,1.6-0.8,2.4c0,0.9,0.3,1.7,0.8,2.4L25.5,264.6z"/>
	<path id="_複合路徑_21" class="st0" d="M30.5,263.8V260h0.8v3.7h1.8v0.8h-1.8v8h-0.8v-8h-1.8v-0.8L30.5,263.8z"/>
	<path id="_複合路徑_22" class="st0" d="M42.7,260.9c0.3,0.3,0.3,0.8,0,1.1c0,0,0,0,0,0c-0.1,0.2-0.3,0.2-0.6,0.2
		c-0.2,0-0.4-0.1-0.6-0.2c-0.3-0.3-0.3-0.8,0-1.1c0,0,0,0,0,0c0.1-0.2,0.4-0.2,0.6-0.2C42.3,260.6,42.5,260.7,42.7,260.9z
		 M42.5,263.8v8.8h-0.8v-8.8H42.5z"/>
	<path id="_複合路徑_23" class="st0" d="M46.2,265.7v6.8h-0.8v-8.8h0.8v0.6c0.7-0.7,1.6-1.1,2.6-1.1c1.9-0.1,3.4,1.3,3.5,3.2
		c0,0.1,0,0.1,0,0.2v5.9h-0.8v-5.8c0-0.7-0.3-1.4-0.8-1.9c-0.5-0.5-1.2-0.8-1.9-0.8c-0.7,0-1.4,0.3-1.9,0.8
		C46.6,265.1,46.4,265.4,46.2,265.7z"/>
	<path id="_複合路徑_24" class="st0" d="M62.6,263.8V260h0.8v3.7h1.8v0.8h-1.8v8h-0.8v-8h-1.8v-0.8L62.6,263.8z"/>
	<path id="_複合路徑_25" class="st0" d="M71.7,263c2.7,0,4.9,2.2,4.9,4.9c0,2.7-2.2,4.9-4.9,4.9c-2.7,0-4.9-2.2-4.9-4.9
		c0-1.3,0.5-2.6,1.4-3.5C69.1,263.5,70.4,263,71.7,263z M68.8,265c-1.6,1.6-1.6,4.2,0,5.8c1.6,1.6,4.2,1.6,5.8,0s1.6-4.2,0-5.8
		c-0.8-0.8-1.8-1.2-2.9-1.2C70.6,263.8,69.6,264.2,68.8,265z"/>
	<path id="_複合路徑_26" class="st0" d="M82.4,272.7c-1,0-1.9-0.3-2.6-1c-0.6-0.7-1-1.5-1-2.5v-5.5h0.8v5.4
		c0,0.7,0.3,1.4,0.8,1.9c0.5,0.5,1.3,0.8,2,0.8c0.7,0,1.4-0.3,1.9-0.8c0.5-0.5,0.8-1.2,0.8-1.9v-5.4h0.8v5.5c0,1.9-1.5,3.4-3.3,3.4
		C82.5,272.6,82.4,272.6,82.4,272.7L82.4,272.7z"/>
	<path id="_複合路徑_27" class="st0" d="M96.1,270.4l0.8,0.3c-0.2,0.2-0.3,0.4-0.5,0.6c-1.9,1.9-5,1.9-7,0c-1.9-1.9-1.9-5,0-7
		c1.9-1.9,5-1.9,7,0c0,0,0,0,0,0c0.2,0.2,0.4,0.4,0.6,0.6l-0.8,0.3c-0.1-0.1-0.2-0.2-0.3-0.3c-1.7-1.5-4.2-1.4-5.7,0.3
		c-1.4,1.5-1.4,3.9,0,5.5c1.5,1.6,4.1,1.6,5.7,0.1c0,0,0,0,0.1-0.1C95.9,270.6,96,270.5,96.1,270.4z"/>
	<path id="_複合路徑_28" class="st0" d="M99.1,258.2h0.8v6c1.4-1.3,3.6-1.3,5,0c0.7,0.6,1,1.5,1,2.5v5.9h-0.8v-5.8
		c0-0.7-0.3-1.4-0.8-1.9c-1.1-1.1-2.8-1.1-3.8,0c-0.2,0.2-0.4,0.5-0.5,0.7v7h-0.8L99.1,258.2z"/>
</g>
<g id="_群組_3">
	<g id="_群組_4">
		<path id="_複合路徑_29" class="st0" d="M166.7,268.2c0.1,2.5-1.8,4.7-4.3,4.8c-2.5,0.1-4.7-1.8-4.8-4.3c0-0.1,0-0.3,0-0.4
			v-4.4c-0.1-2.5,1.8-4.7,4.3-4.8c2.5-0.1,4.7,1.8,4.8,4.3c0,0.1,0,0.3,0,0.4V268.2z M165.9,263.8c0-2.1-1.7-3.8-3.8-3.8
			c0,0,0,0,0,0c-2.1,0-3.8,1.7-3.8,3.8l0,0v4.4c0,2.1,1.7,3.8,3.8,3.8l0,0c2.1,0,3.8-1.7,3.8-3.7c0,0,0,0,0,0V263.8z"/>
		<path id="_複合路徑_30" class="st0" d="M175.4,267.3c-1.8,1.5-4.5,1.4-6.2-0.2c-1.8-1.8-1.8-4.7,0-6.5c1.8-1.8,4.7-1.8,6.4,0
			c0.8,0.8,1.3,1.9,1.3,3.1l0,0c0,1.7-0.5,3.4-1.4,4.8c-1,1.4-2.1,2.8-3.3,4c-0.1,0.1-0.1,0.2-0.2,0.2h-1c0.1-0.1,0.2-0.3,0.4-0.4
			c1.2-1.4,2.4-2.8,3.5-4.3C175.1,267.8,175.3,267.6,175.4,267.3z M175.2,266.5c1.5-1.5,1.5-3.8,0-5.3c-0.7-0.7-1.7-1.1-2.7-1.1
			c-2.1,0-3.8,1.7-3.8,3.8c0,2.1,1.7,3.8,3.8,3.8c0,0,0,0,0,0C173.5,267.6,174.5,267.2,175.2,266.5z"/>
		<path id="_複合路徑_31" class="st0" d="M183.7,259.2v13.3h-0.8v-12h-0.8l1-1.3L183.7,259.2z"/>
		<path id="_複合路徑_32" class="st0" d="M191.1,268.9l2.4-1.8c0.7-0.5,1.4-1.1,2-1.8c0.6-0.6,0.9-1.4,0.9-2.3
			c0-1.7-1.4-3.2-3.2-3.2c-1.6,0-3,1.2-3.2,2.8l-0.8-0.3c0.3-1.9,2-3.3,3.9-3.3c2.2,0,4,1.8,4,4c0,1.1-0.4,2.1-1.1,2.9
			c-0.6,0.6-1.2,1.1-1.8,1.6l-2.4,1.8c-0.8,0.6-1.4,1.5-1.6,2.5h7v0.8h-7.8C189.5,271.2,190.1,269.9,191.1,268.9z"/>
		<path id="_複合路徑_33" class="st0" d="M209.1,265.1h-0.6v-0.8c0.4,0,0.9-0.1,1.3-0.2c0.4-0.2,0.8-0.5,1.1-0.8
			c0.4-0.4,0.6-0.9,0.6-1.5c0-1.1-0.9-2-2-2c-0.5,0-1.1,0.2-1.4,0.6c-0.2,0.2-0.4,0.5-0.5,0.8l-0.7-0.3c0.1-0.4,0.3-0.7,0.6-1
			c0.5-0.5,1.2-0.8,2-0.8c0.8,0,1.5,0.3,2,0.8c0.5,0.5,0.8,1.2,0.8,2c0,0.7-0.2,1.3-0.6,1.9c-0.3,0.4-0.7,0.7-1.2,0.9
			c0.8,0.2,1.4,0.7,2,1.2c0.7,0.8,1.2,1.8,1.1,2.9c0,1.1-0.4,2.1-1.2,2.8c-1.5,1.5-4,1.6-5.6,0c0,0,0,0,0,0c-0.6-0.6-1-1.3-1.1-2.2
			l0.8-0.3c0.2,1.7,1.8,3,3.5,2.8c0.7-0.1,1.4-0.4,1.9-0.9c0.6-0.6,0.9-1.4,0.9-2.2c0-0.9-0.3-1.7-0.9-2.3
			C211.1,265.8,210.1,265.3,209.1,265.1z"/>
		<path id="_複合路徑_34" class="st0" d="M224.5,268.2c0,2.5-2,4.6-4.6,4.6c-2.5,0-4.6-2-4.6-4.6v-4.4c0-2.5,2-4.5,4.6-4.6
			c1.2,0,2.4,0.5,3.2,1.3c0.9,0.8,1.4,2,1.3,3.2V268.2z M223.7,263.8c0-2.1-1.7-3.8-3.8-3.8c-2.1,0-3.8,1.7-3.8,3.8v4.4
			c0,2.1,1.7,3.8,3.8,3.8c2.1,0,3.8-1.7,3.8-3.8V263.8z"/>
		<path id="_複合路徑_35" class="st0" d="M234.8,268.2c0.1,2.5-1.8,4.7-4.3,4.8c-2.5,0.1-4.7-1.8-4.8-4.3c0-0.1,0-0.3,0-0.4
			v-4.4c-0.1-2.5,1.8-4.7,4.3-4.8c2.5-0.1,4.7,1.8,4.8,4.3c0,0.1,0,0.3,0,0.4V268.2z M234,263.8c0.1-2.1-1.5-3.9-3.6-4
			c-2.1-0.1-3.9,1.5-4,3.6c0,0.1,0,0.3,0,0.4v4.4c0,1,0.4,2,1.1,2.7c1.5,1.5,3.9,1.5,5.3,0c0.7-0.7,1.1-1.7,1.1-2.7L234,263.8z"/>
		<path id="_複合路徑_36" class="st0" d="M243.6,264.7c0.8-0.7,1.9-1.1,3-1.1c2.5,0,4.6,2,4.6,4.6s-2,4.6-4.6,4.6
			c-2.5,0-4.5-2-4.6-4.4H242c0-1.7,0.5-3.4,1.4-4.8c1-1.4,2.1-2.8,3.3-4l0.2-0.3h1c-0.1,0.1-0.2,0.3-0.4,0.4
			c-1.2,1.4-2.4,2.8-3.5,4.3C243.9,264.2,243.7,264.4,243.6,264.7z M243.9,265.5c-1.5,1.5-1.5,3.9,0,5.3c1.5,1.5,3.9,1.5,5.3,0
			s1.5-3.9,0-5.3c-0.7-0.7-1.7-1.1-2.7-1.1C245.5,264.4,244.6,264.8,243.9,265.5z"/>
		<path id="_複合路徑_37" class="st0" d="M259.8,267.3c-0.8,0.7-1.9,1.1-3,1.1c-1.2,0-2.4-0.5-3.2-1.3c-1.8-1.8-1.8-4.7,0-6.5
			c1.8-1.8,4.7-1.8,6.5,0c0.8,0.8,1.3,1.9,1.3,3.1h0c0,1.7-0.5,3.4-1.4,4.8c-0.9,1.2-2,2.6-3.3,4l-0.2,0.2h-1
			c0.1-0.1,0.2-0.3,0.4-0.4c1.2-1.4,2.4-2.8,3.5-4.3C259.5,267.8,259.7,267.6,259.8,267.3z M259.5,266.5c1.5-1.5,1.5-3.9,0-5.3
			c-1.5-1.5-3.9-1.5-5.3,0s-1.5,3.9,0,5.3c0.7,0.7,1.7,1.1,2.7,1.1C257.9,267.6,258.8,267.2,259.5,266.5L259.5,266.5z"/>
		<path id="_複合路徑_38" class="st0" d="M264.4,263.4c0.3-0.1,0.6-0.2,0.9-0.3c0.3-0.1,0.7-0.1,1-0.1c0.6,0,1.2,0.1,1.8,0.3
			c1.2,0.4,2.2,1.2,2.8,2.4c0.4,0.7,0.6,1.4,0.6,2.2c0,0.5-0.1,1-0.2,1.4c-0.4,1.2-1.2,2.2-2.3,2.8c-0.7,0.4-1.4,0.5-2.2,0.5
			c-0.5,0-1-0.1-1.4-0.2c-0.9-0.3-1.8-0.8-2.3-1.6l0.5-0.6c0.5,0.7,1.2,1.2,2,1.5c0.4,0.1,0.8,0.2,1.2,0.2c1.7,0,3.2-1.1,3.7-2.8
			c0.1-0.4,0.2-0.8,0.2-1.2c0-0.6-0.2-1.3-0.5-1.8c-0.5-0.9-1.3-1.7-2.3-2c-0.5-0.2-1-0.2-1.5-0.2c-0.8,0-1.6,0.2-2.3,0.4l-0.6-0.5
			l1.5-4.2v-0.3h4.1v0.8h-3.5L264.4,263.4z"/>
	</g>
</g>
<g id="_群組_5">
	<path id="_路徑_" class="st0" d="M138.5,259.3c0.9,1.3,1.7,2.7,2.4,4.1c0.1,0.2,0.2,0.4,0.2,0.6c0,0.2,0,0.2-0.1,0.3
		c-0.2,0.1-0.4,0.2-0.6,0.2c-0.3,0.1-0.7,0.2-1,0.3c0.4,1,0.9,1.9,1.7,2.7c0.9,1,2,1.8,3.2,2.2c0-0.2,0.1-0.4,0.1-0.6
		s0.2-0.6,0.3-0.9s0.2-0.4,0.6-0.3c0.5,0.2,0.9,0.4,1.3,0.6c1.1,0.6,2.1,1.3,3.1,1.9h0.1c-0.2,0.3-0.4,0.5-0.6,0.8
		c-0.6,0.7-1.5,1.2-2.4,1.3c-0.6,0.1-1.3,0-1.9-0.1c-0.9-0.2-1.8-0.6-2.6-1.1c-2.2-1.3-4-3.3-5.2-5.6c-0.4-0.8-0.7-1.6-0.8-2.4
		c-0.2-1,0-2,0.6-2.8C137.4,260.1,137.9,259.6,138.5,259.3z"/>
</g>
</svg>
