<svg xmlns="http://www.w3.org/2000/svg" viewBox="0 0 51 51"><defs><style>.cls-1{fill:#091b30;}.cls-2{fill:#fff;}</style></defs><title>side-backtop</title><g id="圖層_2" data-name="圖層 2"><g id="圖層_1-2" data-name="圖層 1"><polygon id="_路徑_" data-name="&lt;路徑&gt;" class="cls-1" points="51 0 51 51 0 51 51 0"/><g id="_群組_" data-name="&lt;群組&gt;"><path id="_複合路徑_" data-name="&lt;複合路徑&gt;" class="cls-2" d="M19.71,41.43h6.62V43.3H24V49H22.05V43.3H19.71Z"/><path id="_複合路徑_2" data-name="&lt;複合路徑&gt;" class="cls-2" d="M32.72,41.29a3.91,3.91,0,1,1-4,3.9A4,4,0,0,1,32.72,41.29Zm0,6a2,2,0,1,0-2-2.05A2,2,0,0,0,32.72,47.24Z"/><path id="_複合路徑_3" data-name="&lt;複合路徑&gt;" class="cls-2" d="M39.73,41.43h3.32a2.91,2.91,0,1,1,0,5.82H41.66V49H39.73Zm1.93,1.76v2.3h1.28a1,1,0,0,0,1.11-1.16,1,1,0,0,0-1.11-1.14Z"/></g></g></g></svg>