<svg xmlns="http://www.w3.org/2000/svg" viewBox="0 0 111.15 101.58"><defs><style>.cls-1{fill:#091b30;}</style></defs><title>title-highllight</title><g id="圖層_2" data-name="圖層 2"><g id="圖層_1-2" data-name="圖層 1"><polygon class="cls-1" points="107.51 0.71 106.81 0 75.31 31.5 76.72 31.5 107.51 0.71"/><polygon class="cls-1" points="5.93 100.88 6.64 101.58 39.7 68.52 38.29 68.52 5.93 100.88"/><g id="_群組_" data-name="&lt;群組&gt;"><path id="_複合路徑_" data-name="&lt;複合路徑&gt;" d="M10,43.18V54.1H7.24V50H2.79V54.1H0V43.18H2.79v4.24H7.24V43.18Z"/><path id="_複合路徑_2" data-name="&lt;複合路徑&gt;" d="M17.74,43.18V54.1h-2.8V43.18Z"/><path id="_複合路徑_3" data-name="&lt;複合路徑&gt;" d="M27.61,47.73h5.27V54.1h-2.2v-1a3.28,3.28,0,0,1-2.76,1.23,5.67,5.67,0,1,1,0-11.34,5.86,5.86,0,0,1,4.62,2.28l-2.28,1.54a3,3,0,1,0-2.34,4.82,2.81,2.81,0,0,0,2.34-1.25v-.31H27.61Z"/><path id="_複合路徑_4" data-name="&lt;複合路徑&gt;" d="M47.55,43.18V54.1h-2.8V50H40.29V54.1H37.51V43.18h2.78v4.24h4.46V43.18Z"/><path id="_複合路徑_5" data-name="&lt;複合路徑&gt;" d="M52.44,43.18h2.79V51.4h5.24v2.7h-8Z"/><path id="_複合路徑_6" data-name="&lt;複合路徑&gt;" d="M67.51,43.18V54.1h-2.8V43.18Z"/><path id="_複合路徑_7" data-name="&lt;複合路徑&gt;" d="M77.38,47.73h5.27V54.1h-2.2v-1a3.28,3.28,0,0,1-2.76,1.23,5.67,5.67,0,1,1,0-11.34,5.86,5.86,0,0,1,4.62,2.28L80,46.79a3,3,0,1,0-2.34,4.82A2.81,2.81,0,0,0,80,50.36v-.31H77.38Z"/><path id="_複合路徑_8" data-name="&lt;複合路徑&gt;" d="M97.32,43.18V54.1h-2.8V50H90.06V54.1H87.28V43.18h2.78v4.24h4.46V43.18Z"/><path id="_複合路徑_9" data-name="&lt;複合路徑&gt;" d="M101.54,43.18h9.61v2.71h-3.4V54.1h-2.81V45.89h-3.4Z"/></g></g></g></svg>