<svg xmlns="http://www.w3.org/2000/svg" viewBox="0 0 122.52 122.52"><defs><style>.cls-1{fill:#fff;}</style></defs><title>title-works</title><g id="圖層_2" data-name="圖層 2"><g id="圖層_1-2" data-name="圖層 1"><polygon class="cls-1" points="122.52 0.71 121.82 0 83.86 37.96 85.27 37.96 122.52 0.71"/><polygon class="cls-1" points="0 121.82 0.71 122.52 40.56 82.67 39.15 82.67 0 121.82"/><g id="_群組_" data-name="&lt;群組&gt;"><path id="_複合路徑_" data-name="&lt;複合路徑&gt;" class="cls-1" d="M39.65,63.17l-1.93-6.88H39.6l1.11,4.1L42,56.29h1.57l1.29,4.09L46,56.29h1.89l-1.93,6.88H44.09l-1.31-4-1.31,4Z"/><path id="_複合路徑_2" data-name="&lt;複合路徑&gt;" class="cls-1" d="M53.56,56.16a3.57,3.57,0,1,1-3.65,3.57A3.62,3.62,0,0,1,53.56,56.16Zm0,5.44a1.87,1.87,0,1,0-1.87-1.87A1.85,1.85,0,0,0,53.56,61.6Z"/><path id="_複合路徑_3" data-name="&lt;複合路徑&gt;" class="cls-1" d="M63.32,56.29A2.36,2.36,0,0,1,65.9,58.8a2.41,2.41,0,0,1-1.36,2.29L66,63.17H63.92l-1.3-1.85h-.9v1.85H60V56.29Zm-1.6,1.6v1.84h1.51a.92.92,0,1,0,0-1.84Z"/><path id="_複合路徑_4" data-name="&lt;複合路徑&gt;" class="cls-1" d="M68.74,56.29H70.5v2.37l2.14-2.37h2.27l-2.71,3,2.85,3.93H72.87L71,60.58l-.47.52v2.07H68.74Z"/><path id="_複合路徑_5" data-name="&lt;複合路徑&gt;" class="cls-1" d="M78.59,61.1v0c0,.26.37.62,1.17.62s.87-.22.87-.42-.34-.47-1.17-.75c-1.1-.36-2.53-.89-2.53-2.31s1.12-2.13,2.69-2.13,2.81.85,2.81,2.22v.1H80.71v-.07c0-.33-.34-.73-1.06-.73s-.84.24-.84.47.32.41,1.14.7,2.58.9,2.58,2.4c0,1.34-1.17,2-2.74,2s-2.92-.77-2.92-2.12V61.1Z"/></g></g></g></svg>